#!OML:ASF I:\golf\golf\golf 2\Subject 1\2002-09-07\Subject1.ASF
:FULLY-SPECIFIED
:DEGREES
37
root -0.234965 17.9247 -7.39182 8.4329 -1.06553 -7.94651
lowerback -4.09205 0.705478 2.37239
upperback 0.392193 0.689459 4.97172
thorax 2.67002 0.342193 3.85018
lowerneck -11.4607 0.692706 1.28858
upperneck 42.4948 3.15517 -5.71758
head 17.8208 0.74057 -2.33631
rclavicle 7.10655e-015 -4.65156e-014
rhumerus -29.207 -3.75044 -81.7769
rradius 27.343
rwrist -7.95219
rhand -17.2448 11.6303
rfingers 7.12502
rthumb 8.99914 -18.1577
lclavicle 7.10655e-015 -4.65156e-014
lhumerus -31.517 1.84653 87.8381
lradius 28.6141
lwrist 2.55148
lhand -5.00219 32.2322
lfingers 7.12502
lthumb 20.7913 61.1382
rfemur -16.9338 2.19432 25.29
rtibia 28.4222
rfoot -15.2935 -4.60272
rtoes 3.14212
lfemur -19.4745 1.68023 -8.91846
ltibia 34.5911
lfoot -18.3194 2.08217
ltoes -7.0406
38
root -0.227471 17.9247 -7.39296 8.4519 -1.22294 -7.88969
lowerback -3.97897 0.761573 2.36239
upperback 0.360681 0.774702 4.9055
thorax 2.57022 0.385354 3.789
lowerneck -11.5117 0.702883 1.31204
upperneck 42.5802 3.17086 -5.71882
head 17.8875 0.749519 -2.34283
rclavicle -6.06293e-015 -1.19271e-015
rhumerus -29.2433 -3.7015 -81.8466
rradius 27.3771
rwrist -8.02961
rhand -17.259 11.6203
rfingers 7.12502
rthumb 8.98546 -18.1684
lclavicle -6.06293e-015 -1.19271e-015
lhumerus -31.6127 1.70338 87.8243
lradius 28.7493
lwrist 2.71294
lhand -5.13169 32.1364
lfingers 7.12502
lthumb 20.6669 61.0561
rfemur -16.9542 2.27343 25.1796
rtibia 28.406
rfoot -15.2931 -4.51229
rtoes 3.13143
lfemur -19.4527 1.66339 -9.03142
ltibia 34.6031
lfoot -18.3257 2.29015
ltoes -7.18995
39
root -0.218811 17.9251 -7.39499 8.48981 -1.32244 -7.86594
lowerback -3.84181 0.799463 2.40969
upperback 0.269465 0.83742 4.83941
thorax 2.39736 0.41821 3.69254
lowerneck -11.4194 0.701183 1.32357
upperneck 42.6527 3.14904 -5.67325
head 17.9034 0.74943 -2.33017
rclavicle 3.42904e-015 1.51076e-014
rhumerus -29.4174 -3.62494 -81.9271
rradius 27.476
rwrist -8.07933
rhand -17.2728 11.3593
rfingers 7.12502
rthumb 8.97211 -18.4299
lclavicle 3.42904e-015 1.51076e-014
lhumerus -31.8349 1.51268 87.7858
lradius 28.9384
lwrist 2.86355
lhand -5.22595 32.1759
lfingers 7.12502
lthumb 20.5763 61.1054
rfemur -16.9904 2.30861 25.1127
rtibia 28.375
rfoot -15.259 -4.45545
rtoes 3.17419
lfemur -19.4754 1.67359 -9.10557
ltibia 34.6165
lfoot -18.2999 2.41534
ltoes -7.40609
40
root -0.210767 17.9261 -7.39866 8.49904 -1.30145 -7.90223
lowerback -3.73169 0.794369 2.43358
upperback 0.252732 0.836143 4.8612
thorax 2.31827 0.417844 3.69921
lowerneck -11.3564 0.681853 1.23355
upperneck 42.637 3.12393 -5.62422
head 17.8722 0.731943 -2.29372
rclavicle -4.77083e-015 2.22639e-014
rhumerus -29.4147 -3.5931 -81.9184
rradius 27.4946
rwrist -8.0228
rhand -17.1911 11.3411
rfingers 7.12502
rthumb 9.05097 -18.4447
lclavicle -4.77083e-015 2.22639e-014
lhumerus -31.8779 1.59156 87.7698
lradius 29.0672
lwrist 2.73585
lhand -5.09209 32.1292
lfingers 7.12502
lthumb 20.7049 61.0447
rfemur -16.9896 2.29542 25.1272
rtibia 28.3251
rfoot -15.2073 -4.44861
rtoes 3.47333
lfemur -19.5247 1.77035 -9.09613
ltibia 34.6328
lfoot -18.283 2.31754
ltoes -7.55158
41
root -0.204686 17.9271 -7.40156 8.50845 -1.18127 -7.99654
lowerback -3.75803 0.79603 2.44567
upperback 0.337333 0.830035 4.93095
thorax 2.42001 0.414227 3.76696
lowerneck -11.4301 0.631482 1.17141
upperneck 42.5928 3.07427 -5.64852
head 17.8621 0.698404 -2.30061
rclavicle -3.97569e-015 1.59028e-015
rhumerus -29.2179 -3.68833 -81.8341
rradius 27.4272
rwrist -7.96589
rhand -17.1499 11.435
rfingers 7.12502
rthumb 9.09065 -18.3491
lclavicle -3.97569e-015 1.59028e-015
lhumerus -31.6768 1.63234 87.8333
lradius 29.1266
lwrist 2.58405
lhand -4.82643 32.3959
lfingers 7.12502
lthumb 20.9602 61.2834
rfemur -16.9755 2.24375 25.2242
rtibia 28.2588
rfoot -15.1567 -4.51089
rtoes 3.6151
lfemur -19.6051 1.86117 -9.00062
ltibia 34.6569
lfoot -18.2723 2.1408
ltoes -7.38701
42
root -0.198049 17.9304 -7.40421 8.5958 -1.10691 -8.0539
lowerback -3.83056 0.838181 2.50175
upperback 0.346142 0.879561 4.91681
thorax 2.46864 0.439798 3.72514
lowerneck -11.4343 0.579972 1.24472
upperneck 42.605 2.9864 -5.67702
head 17.8663 0.671793 -2.34329
rclavicle -1.88845e-015 -1.51076e-014
rhumerus -29.2097 -3.82003 -81.8322
rradius 27.4872
rwrist -7.89913
rhand -17.2305 11.3302
rfingers 7.12502
rthumb 9.01295 -18.4573
lclavicle -1.88845e-015 -1.51076e-014
lhumerus -31.6367 1.2585 87.9075
lradius 29.3419
lwrist 2.70613
lhand -4.61726 32.8766
lfingers 7.12502
lthumb 21.1611 61.7417
rfemur -17.05 2.23226 25.2687
rtibia 28.1956
rfoot -15.0774 -4.58914
rtoes 3.37402
lfemur -19.7552 1.8375 -8.95459
ltibia 34.6844
lfoot -18.2474 2.11713
ltoes -7.28136
